<svg width="160" height="160" viewBox="0 0 160 160" fill="none" xmlns="http://www.w3.org/2000/svg">
<path d="M97.3187 8.45971C99.0137 8.01578 100.816 8.51116 102.046 9.75924L150.417 58.8309C151.648 60.079 152.119 61.8901 151.655 63.5821L133.383 130.108C132.918 131.8 131.588 133.116 129.893 133.56L63.25 151.014C61.555 151.458 59.753 150.963 58.5227 149.715L10.1512 100.643C8.92097 99.395 8.44937 97.5839 8.91408 95.8918L27.1856 29.3658C27.6503 27.6738 28.9807 26.358 30.6757 25.9141L97.3187 8.45971Z" fill="#F7FFE9"/>
<path d="M77.0834 80.0002H82.9167M77.0834 88.7502H82.9167M77.0834 97.5002H82.9167M85.8334 68.3335H74.1667C66.9275 68.3335 65.4167 69.8443 65.4167 77.0835V109.167H94.5834V77.0835C94.5834 69.8443 93.0725 68.3335 85.8334 68.3335Z" stroke="#F37000" stroke-width="3" stroke-linecap="round" stroke-linejoin="round"/>
<path d="M106.25 109.167V68.8759C106.25 65.2914 106.25 63.5005 105.378 62.0626C104.509 60.6218 102.94 59.8197 99.8013 58.2184L87.1371 51.7522C83.7538 50.0255 82.9167 50.6351 82.9167 54.4209V67.4701M53.75 109.167V82.9168C53.75 80.5047 54.2546 80.0001 56.6667 80.0001H65.4167M109.167 109.167H50.8333" stroke="#F37000" stroke-width="3" stroke-linecap="round" stroke-linejoin="round"/>
</svg>
