<svg width="160" height="160" viewBox="0 0 160 160" fill="none" xmlns="http://www.w3.org/2000/svg">
<path d="M97.3187 8.45971C99.0137 8.01578 100.816 8.51116 102.046 9.75924L150.417 58.8309C151.648 60.079 152.119 61.8901 151.655 63.5821L133.383 130.108C132.918 131.8 131.588 133.116 129.893 133.56L63.25 151.014C61.555 151.458 59.753 150.963 58.5227 149.715L10.1512 100.643C8.92097 99.395 8.44937 97.5839 8.91408 95.8918L27.1856 29.3658C27.6503 27.6738 28.9807 26.358 30.6757 25.9141L97.3187 8.45971Z" fill="#F7FFE9"/>
<path d="M50.8333 109.167H109.167M68.3333 109.167V62.4999C68.3333 57.6728 69.3396 56.6666 74.1666 56.6666H85.8333C90.6604 56.6666 91.6666 57.6728 91.6666 62.4999V109.167M68.3333 109.167H91.6666M68.3333 109.167H53.75V88.7499C53.75 83.9228 54.7562 82.9166 59.5833 82.9166H68.3333V109.167ZM91.6666 109.167V82.9166H100.417C105.244 82.9166 106.25 83.9228 106.25 88.7499V109.167H91.6666ZM80 56.6666V50.8333M80 109.167V103.333M77.0833 88.7499H82.9166M77.0833 78.5416H82.9166M77.0833 68.3333H82.9166" stroke="#F37000" stroke-width="3" stroke-linecap="round" stroke-linejoin="round"/>
</svg>
