<svg width="160" height="160" viewBox="0 0 160 160" fill="none" xmlns="http://www.w3.org/2000/svg">
<path d="M97.3187 8.45971C99.0137 8.01578 100.816 8.51116 102.046 9.75924L150.417 58.8309C151.648 60.079 152.119 61.8901 151.655 63.5821L133.383 130.108C132.918 131.8 131.588 133.116 129.893 133.56L63.25 151.014C61.555 151.458 59.753 150.963 58.5227 149.715L10.1512 100.643C8.92097 99.395 8.44937 97.5839 8.91408 95.8918L27.1856 29.3658C27.6503 27.6738 28.9807 26.358 30.6757 25.9141L97.3187 8.45971Z" fill="#F7FFE9"/>
<path d="M82.9167 93.7171C82.9167 91.0396 82.9167 89.7037 83.5088 88.5429C84.1038 87.385 85.2092 86.5625 87.4201 84.9204L88.8784 83.8354C92.3201 81.2775 94.0409 80 96.0417 80C98.0426 80 99.7634 81.2775 103.205 83.8354L104.663 84.9204C106.874 86.5625 107.98 87.385 108.572 88.5429C109.164 89.7008 109.167 91.0396 109.167 93.7171V98.0192C109.167 103.275 109.167 105.903 107.458 107.533C105.748 109.164 103.001 109.167 97.5001 109.167H82.9167V93.7171Z" stroke="#F37000" stroke-width="3" stroke-linecap="round" stroke-linejoin="round"/>
<path d="M97.5 79.9999V59.5833C97.5 52.3441 95.9892 50.8333 88.75 50.8333H77.0834C69.8442 50.8333 68.3334 52.3441 68.3334 59.5833V109.167" stroke="#F37000" stroke-width="3" stroke-linecap="round" stroke-linejoin="round"/>
<path d="M55.2084 91.6667C57.6246 91.6667 59.5834 89.055 59.5834 85.8333C59.5834 82.6117 57.6246 80 55.2084 80C52.7921 80 50.8334 82.6117 50.8334 85.8333C50.8334 89.055 52.7921 91.6667 55.2084 91.6667Z" stroke="#F37000" stroke-width="3" stroke-linecap="round" stroke-linejoin="round"/>
<path d="M55.2084 91.6667V109.167M50.8334 109.167H103.333M80 62.5H85.8334M80 71.25H85.8334M96.0417 109.167V103.333" stroke="#F37000" stroke-width="3" stroke-linecap="round" stroke-linejoin="round"/>
</svg>
