<svg width="32" height="32" viewBox="0 0 32 32" fill="none" xmlns="http://www.w3.org/2000/svg">
<path d="M21.3334 21.3333C21.3334 19.86 17.1547 18.6666 12 18.6666M21.3334 21.3333C21.3334 22.8066 17.1547 24 12 24C6.84537 24 2.66671 22.8066 2.66671 21.3333M21.3334 21.3333V27.916C21.3334 29.4346 17.1547 30.6666 12 30.6666C6.84537 30.6666 2.66671 29.436 2.66671 27.916V21.3333M21.3334 21.3333C26.432 21.3333 30.6667 20.0173 30.6667 18.6666V5.33329M12 18.6666C6.84537 18.6666 2.66671 19.86 2.66671 21.3333M12 18.6666C6.10937 18.6666 1.33337 17.3506 1.33337 16V9.33329M12 6.66663C6.10937 6.66663 1.33337 7.85996 1.33337 9.33329M1.33337 9.33329C1.33337 10.8066 6.10937 12 12 12C12 13.3506 16.3374 14.6666 21.436 14.6666C26.5347 14.6666 30.6667 13.3506 30.6667 12M30.6667 5.33329C30.6667 3.85996 26.5334 2.66663 21.436 2.66663C16.3387 2.66663 12.2054 3.85996 12.2054 5.33329M30.6667 5.33329C30.6667 6.80663 26.5334 7.99996 21.436 7.99996C16.3387 7.99996 12.2054 6.80663 12.2054 5.33329M12.2054 5.33329V18.888" stroke="#F37000" stroke-width="2.66667"/>
</svg>
