<svg width="32" height="32" viewBox="0 0 32 32" fill="none" xmlns="http://www.w3.org/2000/svg">
<path d="M11.6667 13.1111H11.6811M20.3333 13.1111H20.3478M3 16C3 17.7072 3.33625 19.3977 3.98957 20.9749C4.64288 22.5521 5.60045 23.9852 6.80761 25.1924C8.01477 26.3995 9.44788 27.3571 11.0251 28.0104C12.6023 28.6637 14.2928 29 16 29C17.7072 29 19.3977 28.6637 20.9749 28.0104C22.5521 27.3571 23.9852 26.3995 25.1924 25.1924C26.3995 23.9852 27.3571 22.5521 28.0104 20.9749C28.6637 19.3977 29 17.7072 29 16C29 14.2928 28.6637 12.6023 28.0104 11.0251C27.3571 9.44788 26.3995 8.01477 25.1924 6.80761C23.9852 5.60045 22.5521 4.64288 20.9749 3.98957C19.3977 3.33626 17.7072 3 16 3C14.2928 3 12.6023 3.33626 11.0251 3.98957C9.44788 4.64288 8.01477 5.60045 6.80761 6.80761C5.60045 8.01477 4.64288 9.44788 3.98957 11.0251C3.33625 12.6023 3 14.2928 3 16Z" stroke="#F37000" stroke-width="2.66667" stroke-linecap="round" stroke-linejoin="round"/>
<path d="M12.389 20.3333C12.8597 20.8138 13.4215 21.1954 14.0416 21.456C14.6617 21.7165 15.3275 21.8507 16.0001 21.8507C16.6727 21.8507 17.3385 21.7165 17.9586 21.456C18.5786 21.1954 19.1405 20.8138 19.6112 20.3333M16.0001 3C15.2339 3 14.4991 3.30436 13.9573 3.84614C13.4156 4.38791 13.1112 5.12271 13.1112 5.88889C13.1112 6.65507 13.4156 7.38987 13.9573 7.93164C14.4991 8.47341 15.2339 8.77778 16.0001 8.77778" stroke="#F37000" stroke-width="2.66667" stroke-linecap="round" stroke-linejoin="round"/>
</svg>
