<svg width="70" height="70" viewBox="0 0 70 70" fill="none" xmlns="http://www.w3.org/2000/svg">
<g clip-path="url(#clip0_2005_90)">
<circle cx="35" cy="35" r="35" fill="#FDF9E6"/>
<path d="M19.5 43.125C18.25 40.625 17.5 37.875 17.5 35C17.5 25.375 25.375 17.5 35 17.5V20C26.75 20 20 26.75 20 35C20 37.5 20.625 39.75 21.75 41.875L19.5 43.125ZM50 35C50 43.25 43.25 50 35 50C31.375 50 28 48.75 25.375 46.5L32.5 39.375L30.75 37.5L22.625 45.625C22.125 46.125 22.125 46.875 22.625 47.375C25.875 50.625 30.375 52.5 35 52.5C44.625 52.5 52.5 44.625 52.5 35H50Z" fill="#90BE45"/>
<path d="M37.5 46.25C37.375 46.25 37.125 46.25 37 46.125C36.625 46 36.25 45.625 36.25 45.125L35.375 38.875L37.875 38.5L38.375 42.625L41.125 40.5V33.75C41.125 33.375 41.25 33.125 41.5 32.875L45.5 28.875C46.625 27.75 47.375 26.125 47.375 24.5V22.5H45.5C43.875 22.5 42.25 23.125 41.125 24.375L37.125 28.375C36.875 28.625 36.625 28.75 36.25 28.75H29.375L27.25 31.5L31.375 32L31 34.5L24.75 33.625C24.25 33.625 23.875 33.25 23.75 32.875C23.625 32.5 23.625 32 23.875 31.625L27.625 26.625C28 26.375 28.375 26.25 28.75 26.25H35.75L39.5 22.5C41.125 20.875 43.375 20 45.625 20H47.5C48.875 20 50 21.125 50 22.5V24.375C50 26.75 49.125 28.875 47.5 30.5L43.75 34.25V41.25C43.75 41.625 43.625 42 43.25 42.25L38.25 46C38 46.125 37.75 46.25 37.5 46.25Z" fill="#90BE45"/>
</g>
<defs>
<clipPath id="clip0_2005_90">
<rect width="70" height="70" fill="white"/>
</clipPath>
</defs>
</svg>
