<svg width="70" height="70" viewBox="0 0 70 70" fill="none" xmlns="http://www.w3.org/2000/svg">
<g clip-path="url(#clip0_2005_85)">
<circle cx="35" cy="35" r="35" fill="#FDF9E6"/>
<path d="M35 18.75C34.2187 18.75 33.4425 19.0125 32.7737 19.4925L30.7037 20.9375L28.3187 21.25H28.28L28.2412 21.2888C27.4588 21.4648 26.7424 21.8594 26.1752 22.4265C25.6081 22.9936 25.2136 23.71 25.0375 24.4925L25 24.5312V24.57L24.6875 26.9925L23.2425 28.8675L23.2025 28.9062V28.945C22.3287 30.3413 22.29 32.1438 23.2425 33.4762L24.7262 35.5462L25.1175 37.6962L21.0937 43.8275L19.805 45.7425H25.7812L27.2262 49.1012L28.125 51.25L29.4137 49.2962L33.3587 43.3587C34.4187 43.7938 35.615 43.8337 36.6412 43.3587L40.5862 49.2962L41.875 51.25L42.7737 49.1012L44.2187 45.7425H50.195L48.9062 43.8275L45 37.8913L45.3125 35.5475L46.7575 33.4775L46.7975 33.4388V33.4C47.6712 32.0038 47.71 30.24 46.7575 28.9075L45.3125 26.8363L44.8437 24.4925H44.8825C44.8775 24.4625 44.8487 24.4425 44.8437 24.4138C44.6187 22.7788 43.325 21.4513 41.68 21.25H41.64L39.2962 20.9375L37.2262 19.4925C36.5799 19.0186 35.8014 18.759 35 18.75ZM35 21.2888C35.2875 21.2888 35.5712 21.3762 35.7812 21.5237L38.0075 23.125L38.2812 23.32L38.5937 23.36L41.3287 23.75H41.3662C41.9287 23.8125 42.3187 24.2038 42.3825 24.7663V24.8438L42.8912 27.6175L42.9287 27.8912L43.125 28.125L44.7262 30.3512C45.025 30.7663 45.0637 31.47 44.6875 32.07L42.93 34.5312L42.89 34.8438L42.5 37.5788V37.6163C42.4789 37.8115 42.4121 37.9991 42.305 38.1637L42.2262 38.2038V38.2413C42.0405 38.4644 41.774 38.605 41.485 38.6325H41.4062L38.555 39.1413L38.2425 39.1788L38.0075 39.375L35.7812 40.9762C35.3662 41.275 34.6237 41.3137 34.0237 40.9375L31.9925 39.375L31.7575 39.18L31.4062 39.14L28.6712 38.75H28.6337C28.4571 38.7339 28.2869 38.6758 28.1373 38.5806C27.9877 38.4853 27.8631 38.3557 27.7737 38.2025C27.691 38.0582 27.6379 37.8988 27.6175 37.7337V37.6562L27.11 34.805L27.07 34.4925L26.875 34.2575L25.2737 32.0312C24.975 31.6163 24.9362 30.8737 25.3125 30.2738L26.875 28.2425L27.07 28.0075L27.1087 27.6562L27.4612 25.0388C27.4662 25.02 27.495 25.02 27.5 25C27.5786 24.6994 27.7359 24.4252 27.9556 24.2056C28.1752 23.9859 28.4494 23.8286 28.75 23.75C28.77 23.745 28.77 23.7162 28.7887 23.7112L31.4062 23.3587L31.7187 23.3212L31.9925 23.125L34.2187 21.5237C34.4287 21.3775 34.7125 21.2888 35 21.2888ZM43.6325 40.3125L45.5475 43.2425H42.5375L42.225 44.0238L41.3662 46.015L38.71 41.9525L39.295 41.5238L41.7575 41.0938V41.1325C41.7862 41.1275 41.805 41.0987 41.835 41.0938C42.4929 40.9988 43.1145 40.729 43.6325 40.3125ZM26.3675 40.3512C26.9103 40.8447 27.5922 41.1586 28.32 41.25H28.3587L30.7425 41.5625L31.2887 41.9925L28.6325 46.015L27.7737 44.0238L27.4612 43.2425H24.4537L26.3675 40.3512Z" fill="#90BE45"/>
</g>
<defs>
<clipPath id="clip0_2005_85">
<rect width="70" height="70" fill="white"/>
</clipPath>
</defs>
</svg>
