<svg width="70" height="70" viewBox="0 0 70 70" fill="none" xmlns="http://www.w3.org/2000/svg">
<g clip-path="url(#clip0_2005_67)">
<circle cx="35" cy="35" r="35" fill="#FDF9E6"/>
<path d="M27 21H43C43.5304 21 44.0391 21.2107 44.4142 21.5858C44.7893 21.9609 45 22.4696 45 23V33.044C45.688 33.1067 46.3547 33.23 47 33.414V23C47 21.9391 46.5786 20.9217 45.8284 20.1716C45.0783 19.4214 44.0609 19 43 19H27C25.9391 19 24.9217 19.4214 24.1716 20.1716C23.4214 20.9217 23 21.9391 23 23V47C23 48.0609 23.4214 49.0783 24.1716 49.8284C24.9217 50.5786 25.9391 51 27 51H35.514C35.0046 50.3831 34.564 49.7125 34.2 49H27C26.4696 49 25.9609 48.7893 25.5858 48.4142C25.2107 48.0391 25 47.5304 25 47H33.414C33.2292 46.3462 33.1053 45.6767 33.044 45H25V23C25 22.4696 25.2107 21.9609 25.5858 21.5858C25.9609 21.2107 26.4696 21 27 21ZM29 23C28.4696 23 27.9609 23.2107 27.5858 23.5858C27.2107 23.9609 27 24.4696 27 25V27C27 27.5304 27.2107 28.0391 27.5858 28.4142C27.9609 28.7893 28.4696 29 29 29H41C41.5304 29 42.0391 28.7893 42.4142 28.4142C42.7893 28.0391 43 27.5304 43 27V25C43 24.4696 42.7893 23.9609 42.4142 23.5858C42.0391 23.2107 41.5304 23 41 23H29ZM41 25V27H29V25H41ZM53 44C53 46.3869 52.0518 48.6761 50.364 50.364C48.6761 52.0518 46.3869 53 44 53C41.6131 53 39.3239 52.0518 37.636 50.364C35.9482 48.6761 35 46.3869 35 44C35 41.6131 35.9482 39.3239 37.636 37.636C39.3239 35.9482 41.6131 35 44 35C46.3869 35 48.6761 35.9482 50.364 37.636C52.0518 39.3239 53 41.6131 53 44ZM43.04 40.068C42.9105 39.9786 42.7597 39.9247 42.6029 39.9117C42.446 39.8987 42.2885 39.9271 42.146 39.994C42.0299 40.0456 41.9247 40.119 41.836 40.21C41.7428 40.3039 41.6692 40.4154 41.6195 40.5379C41.5697 40.6605 41.5447 40.7917 41.546 40.924V47.074C41.5444 47.2066 41.5693 47.3382 41.6191 47.4611C41.6689 47.5841 41.7426 47.6958 41.836 47.79C41.9282 47.8797 42.0342 47.954 42.15 48.01C42.3529 48.103 42.5832 48.1172 42.796 48.05C42.8884 48.0202 42.976 47.9771 43.056 47.922L47.648 44.788C47.7877 44.6959 47.9002 44.5681 47.974 44.418C48.0494 44.2665 48.0881 44.0995 48.087 43.9303C48.086 43.7611 48.0452 43.5945 47.968 43.444C47.8889 43.2966 47.774 43.1715 47.634 43.08L43.04 40.068Z" fill="#90BE45"/>
</g>
<defs>
<clipPath id="clip0_2005_67">
<rect width="70" height="70" fill="white"/>
</clipPath>
</defs>
</svg>
