<svg width="70" height="70" viewBox="0 0 70 70" fill="none" xmlns="http://www.w3.org/2000/svg">
<g clip-path="url(#clip0_2005_78)">
<circle cx="35" cy="35" r="35" fill="#FDF9E6"/>
<path d="M39.9967 39.9483V42.2917C39.9967 46.7117 39.9967 48.92 38.5317 50.2933C37.0683 51.6667 34.71 51.6667 29.9967 51.6667C25.2833 51.6667 22.925 51.6667 21.4617 50.2933C19.9967 48.9217 19.9967 46.71 19.9967 42.2933V34.2567C19.9967 29.8367 19.9967 27.6267 21.4617 26.2533C22.4317 25.345 23.7083 25.0933 24.9967 25.025M29.9967 46.6667H30.0117" stroke="#90BE45" stroke-width="2" stroke-linecap="round" stroke-linejoin="round"/>
<path d="M39.9967 20.8333C36.485 18.8633 34.3717 18.4833 31.6633 18.3333C30.585 18.5283 30.245 18.9183 29.9967 20V30C29.9883 31.5233 30.3267 32.0933 31.6633 32.5C35.2917 33.08 37.03 33.605 39.7917 34.9033C39.9217 34.965 40.075 34.9667 40.2067 34.91C42.8717 33.7667 44.5933 33.1267 46.57 32.755C47.7317 32.5383 49.175 32.5217 49.75 31.4917C49.9533 31.13 50.0217 30.6617 49.9967 30V20C49.6567 18.9267 49.2917 18.565 48.33 18.3333C45.4033 18.495 43.6333 18.9083 39.9967 20.8333ZM39.9967 20.8333V34.1667" stroke="#90BE45" stroke-width="2" stroke-linecap="round" stroke-linejoin="round"/>
</g>
<defs>
<clipPath id="clip0_2005_78">
<rect width="70" height="70" fill="white"/>
</clipPath>
</defs>
</svg>
