<svg width="37" height="38" viewBox="0 0 37 38" fill="none" xmlns="http://www.w3.org/2000/svg">
<path d="M16.1488 2.20821C17.5508 1.18963 19.4492 1.18963 20.8511 2.20821L34.6944 12.266C36.0964 13.2845 36.683 15.09 36.1475 16.7381L30.8598 33.0119C30.3243 34.66 28.7885 35.7758 27.0556 35.7758H9.94432C8.21142 35.7758 6.6756 34.66 6.1401 33.0119L0.852419 16.7381C0.316922 15.09 0.903555 13.2845 2.3055 12.266L16.1488 2.20821Z" fill="#90BE45"/>
<path d="M18.2934 25.662C17.5614 25.662 16.8954 25.548 16.2954 25.32C15.7074 25.08 15.2154 24.75 14.8194 24.33C14.4354 23.898 14.1834 23.4 14.0634 22.836L14.9634 21.882C14.9994 22.23 15.1554 22.584 15.4314 22.944C15.7074 23.304 16.0854 23.604 16.5654 23.844C17.0574 24.072 17.6274 24.186 18.2754 24.186C18.8274 24.186 19.3254 24.096 19.7694 23.916C20.2134 23.724 20.5674 23.46 20.8314 23.124C21.0954 22.788 21.2274 22.398 21.2274 21.954C21.2274 21.462 21.0654 21.042 20.7414 20.694C20.4174 20.346 19.9554 20.082 19.3554 19.902C18.7674 19.722 18.0654 19.632 17.2494 19.632H16.6374V18.282H17.2494C18.3534 18.282 19.2354 18.108 19.8954 17.76C20.5554 17.4 20.8854 16.866 20.8854 16.158C20.8854 15.702 20.7594 15.312 20.5074 14.988C20.2674 14.652 19.9434 14.4 19.5354 14.232C19.1394 14.052 18.7134 13.962 18.2574 13.962C17.4894 13.962 16.8354 14.136 16.2954 14.484C15.7674 14.82 15.3954 15.216 15.1794 15.672L14.1174 14.574C14.3574 14.154 14.6934 13.794 15.1254 13.494C15.5574 13.194 16.0434 12.966 16.5834 12.81C17.1234 12.642 17.6754 12.558 18.2394 12.558C19.0674 12.558 19.8054 12.714 20.4534 13.026C21.1134 13.338 21.6294 13.758 22.0014 14.286C22.3734 14.814 22.5594 15.414 22.5594 16.086C22.5594 16.566 22.4634 16.998 22.2714 17.382C22.0794 17.754 21.7974 18.066 21.4254 18.318C21.0534 18.57 20.6034 18.762 20.0754 18.894C20.6394 18.99 21.1314 19.194 21.5514 19.506C21.9714 19.818 22.2954 20.202 22.5234 20.658C22.7514 21.114 22.8654 21.612 22.8654 22.152C22.8654 22.896 22.6494 23.532 22.2174 24.06C21.7854 24.576 21.2214 24.972 20.5254 25.248C19.8414 25.524 19.0974 25.662 18.2934 25.662Z" fill="white"/>
</svg>
