<svg width="37" height="38" viewBox="0 0 37 38" fill="none" xmlns="http://www.w3.org/2000/svg">
<path d="M16.1488 2.20815C17.5508 1.18957 19.4492 1.18957 20.8511 2.20815L34.6944 12.2659C36.0964 13.2845 36.683 15.09 36.1475 16.738L30.8598 33.0118C30.3243 34.6599 28.7885 35.7758 27.0556 35.7758H9.94432C8.21142 35.7758 6.6756 34.6599 6.1401 33.0118L0.852419 16.738C0.316922 15.09 0.903555 13.2845 2.3055 12.2659L16.1488 2.20815Z" fill="#90BE45"/>
<path d="M19.8036 25.5V22.242H13.7916V20.82L20.2896 12.72H21.3876V20.802H22.9716V22.242H21.3876V25.5H19.8036ZM15.4476 20.802H19.9656V15.15L15.4476 20.802Z" fill="white"/>
</svg>
