<svg width="37" height="38" viewBox="0 0 37 38" fill="none" xmlns="http://www.w3.org/2000/svg">
<path d="M16.1489 2.20821C17.5508 1.18963 19.4492 1.18963 20.8512 2.20821L34.6945 12.266C36.0964 13.2845 36.6831 15.09 36.1476 16.7381L30.8599 33.0119C30.3244 34.66 28.7886 35.7758 27.0557 35.7758H9.94438C8.21148 35.7758 6.67566 34.66 6.14016 33.0119L0.85248 16.7381C0.316983 15.09 0.903616 13.2845 2.30557 12.266L16.1489 2.20821Z" fill="#90BE45"/>
<path d="M18.2875 25.68C17.3755 25.68 16.5535 25.464 15.8215 25.032C15.1015 24.6 14.5495 24.018 14.1655 23.286L15.1555 22.422C15.4915 22.974 15.9355 23.418 16.4875 23.754C17.0515 24.09 17.6575 24.258 18.3055 24.258C18.8575 24.258 19.3495 24.138 19.7815 23.898C20.2135 23.658 20.5555 23.328 20.8075 22.908C21.0595 22.488 21.1855 22.002 21.1855 21.45C21.1855 20.91 21.0595 20.436 20.8075 20.028C20.5675 19.62 20.2375 19.302 19.8175 19.074C19.4095 18.834 18.9475 18.714 18.4315 18.714C17.9275 18.714 17.4475 18.828 16.9915 19.056C16.5355 19.284 16.1695 19.608 15.8935 20.028H14.4535L15.8935 12.72H22.1035V14.178H17.0635L16.2895 18.246C16.5535 17.958 16.8835 17.736 17.2795 17.58C17.6875 17.424 18.1375 17.346 18.6295 17.346C19.4215 17.346 20.1295 17.52 20.7535 17.868C21.3895 18.216 21.8875 18.696 22.2475 19.308C22.6195 19.908 22.8055 20.61 22.8055 21.414C22.8055 22.254 22.6015 22.998 22.1935 23.646C21.7975 24.282 21.2575 24.78 20.5735 25.14C19.9015 25.5 19.1395 25.68 18.2875 25.68Z" fill="white"/>
</svg>
