<svg width="37" height="37" viewBox="0 0 37 37" fill="none" xmlns="http://www.w3.org/2000/svg">
<path d="M16.1488 1.70821C17.5508 0.68963 19.4492 0.689632 20.8511 1.70821L34.6944 11.766C36.0964 12.7845 36.683 14.59 36.1475 16.2381L30.8598 32.5119C30.3243 34.16 28.7885 35.2758 27.0556 35.2758H9.94432C8.21142 35.2758 6.6756 34.16 6.1401 32.5119L0.852419 16.2381C0.316922 14.59 0.903555 12.7845 2.3055 11.766L16.1488 1.70821Z" fill="#90BE45"/>
<path d="M22.0694 23.56V25H15.7154V23.56H18.1634V13.75C18.0674 13.894 17.9114 14.056 17.6954 14.236C17.4794 14.404 17.2274 14.572 16.9394 14.74C16.6634 14.896 16.3814 15.028 16.0934 15.136C15.8054 15.244 15.5414 15.298 15.3014 15.298V13.822C15.6254 13.822 15.9494 13.738 16.2734 13.57C16.6094 13.402 16.9154 13.204 17.1914 12.976C17.4794 12.748 17.7074 12.544 17.8754 12.364C18.0554 12.184 18.1514 12.088 18.1634 12.076H19.7834V23.56H22.0694Z" fill="white"/>
</svg>
