<svg width="37" height="38" viewBox="0 0 37 38" fill="none" xmlns="http://www.w3.org/2000/svg">
<path d="M16.1488 2.20821C17.5508 1.18963 19.4492 1.18963 20.8511 2.20821L34.6944 12.266C36.0964 13.2845 36.683 15.09 36.1475 16.7381L30.8598 33.0119C30.3243 34.66 28.7885 35.7758 27.0556 35.7758H9.94432C8.21142 35.7758 6.6756 34.66 6.1401 33.0119L0.852419 16.7381C0.316922 15.09 0.903555 13.2845 2.3055 12.266L16.1488 2.20821Z" fill="#90BE45"/>
<path d="M14.0194 25.5C14.0194 24.78 14.0794 24.144 14.1994 23.592C14.3314 23.028 14.5174 22.524 14.7574 22.08C15.0094 21.636 15.3094 21.246 15.6574 20.91C16.0054 20.574 16.4014 20.274 16.8454 20.01C17.3134 19.734 17.7934 19.482 18.2854 19.254C18.7774 19.026 19.2334 18.786 19.6534 18.534C20.0734 18.282 20.4094 17.982 20.6614 17.634C20.9254 17.274 21.0574 16.83 21.0574 16.302C21.0574 15.882 20.9674 15.504 20.7874 15.168C20.6074 14.82 20.3374 14.544 19.9774 14.34C19.6174 14.136 19.1554 14.034 18.5914 14.034C18.0274 14.034 17.5174 14.13 17.0614 14.322C16.6174 14.514 16.2334 14.742 15.9094 15.006C15.5854 15.27 15.3274 15.522 15.1354 15.762L14.1094 14.736C14.2054 14.616 14.3734 14.436 14.6134 14.196C14.8654 13.956 15.1834 13.71 15.5674 13.458C15.9634 13.206 16.4254 12.996 16.9534 12.828C17.4814 12.648 18.0814 12.558 18.7534 12.558C19.6534 12.558 20.4034 12.726 21.0034 13.062C21.6034 13.398 22.0534 13.848 22.3534 14.412C22.6654 14.976 22.8214 15.6 22.8214 16.284C22.8214 16.896 22.7074 17.424 22.4794 17.868C22.2514 18.3 21.9574 18.666 21.5974 18.966C21.2374 19.266 20.8414 19.53 20.4094 19.758C19.9894 19.986 19.5814 20.202 19.1854 20.406C18.4294 20.766 17.8294 21.096 17.3854 21.396C16.9414 21.696 16.5994 21.99 16.3594 22.278C16.1314 22.554 15.9754 22.836 15.8914 23.124C15.8194 23.412 15.7774 23.724 15.7654 24.06H22.8394V25.5H14.0194Z" fill="white"/>
</svg>
