<svg width="37" height="38" viewBox="0 0 37 38" fill="none" xmlns="http://www.w3.org/2000/svg">
<path d="M16.1489 2.20821C17.5508 1.18963 19.4492 1.18963 20.8512 2.20821L34.6945 12.266C36.0964 13.2845 36.6831 15.09 36.1476 16.7381L30.8599 33.0119C30.3244 34.66 28.7886 35.7758 27.0557 35.7758H9.94438C8.21148 35.7758 6.67566 34.66 6.14016 33.0119L0.85248 16.7381C0.316983 15.09 0.903616 13.2845 2.30557 12.266L16.1489 2.20821Z" fill="#90BE45"/>
<path d="M23.158 21.27C23.158 22.086 22.954 22.83 22.546 23.502C22.15 24.162 21.604 24.69 20.908 25.086C20.224 25.482 19.45 25.68 18.586 25.68C17.674 25.68 16.87 25.464 16.174 25.032C15.478 24.588 14.932 23.952 14.536 23.124C14.152 22.296 13.96 21.312 13.96 20.172C13.96 18.492 14.158 17.094 14.554 15.978C14.95 14.862 15.508 14.028 16.228 13.476C16.948 12.912 17.788 12.63 18.748 12.63C19.576 12.63 20.326 12.834 20.998 13.242C21.682 13.638 22.216 14.19 22.6 14.898L21.628 15.852C21.364 15.288 20.974 14.844 20.458 14.52C19.942 14.184 19.366 14.016 18.73 14.016C18.082 14.016 17.512 14.214 17.02 14.61C16.528 15.006 16.144 15.576 15.868 16.32C15.604 17.064 15.466 17.964 15.454 19.02C15.634 18.6 15.886 18.24 16.21 17.94C16.534 17.628 16.912 17.388 17.344 17.22C17.788 17.052 18.256 16.968 18.748 16.968C19.576 16.968 20.32 17.16 20.98 17.544C21.652 17.928 22.18 18.444 22.564 19.092C22.96 19.74 23.158 20.466 23.158 21.27ZM18.604 24.312C19.156 24.312 19.66 24.174 20.116 23.898C20.584 23.622 20.956 23.256 21.232 22.8C21.508 22.332 21.646 21.822 21.646 21.27C21.646 20.718 21.508 20.214 21.232 19.758C20.956 19.302 20.584 18.936 20.116 18.66C19.66 18.384 19.156 18.246 18.604 18.246C18.052 18.246 17.542 18.384 17.074 18.66C16.618 18.936 16.252 19.302 15.976 19.758C15.7 20.214 15.562 20.718 15.562 21.27C15.562 21.822 15.7 22.332 15.976 22.8C16.252 23.256 16.618 23.622 17.074 23.898C17.542 24.174 18.052 24.312 18.604 24.312Z" fill="white"/>
</svg>
